<svg width="48" height="48" viewBox="0 0 48 48" fill="none" xmlns="http://www.w3.org/2000/svg">
<g clip-path="url(#clip0_377_368)">
<path d="M27.6389 43.4632C26.0542 43.4632 24.5706 43.0805 23.2261 42.3271C21.8598 41.5606 20.761 40.4782 19.961 39.1103C19.161 37.7425 18.7556 36.2062 18.7556 34.5432C18.7556 32.8801 19.1632 31.3406 19.9653 29.9749C20.7642 28.6158 21.8609 27.5388 23.225 26.7734C24.5695 26.0201 26.0531 25.6374 27.6378 25.6374C29.2225 25.6374 30.7061 26.019 32.0496 26.7723C33.4234 27.5432 34.5201 28.6289 35.3103 30.0001C36.0929 31.3603 36.4896 32.8877 36.4896 34.541C36.4896 36.1942 36.0896 37.7293 35.2994 39.095C34.506 40.4672 33.4125 41.5519 32.0496 42.3216C30.7094 43.0783 29.2247 43.4621 27.6378 43.4621L27.6389 43.4632Z" fill="#F6F6F6"/>
<path d="M37.9471 25.7915H35.345C33.4733 25.7915 31.9561 27.3179 31.9561 29.2008V39.9468C31.9561 41.8296 33.4733 43.356 35.345 43.356H37.9471C39.8188 43.356 41.3361 41.8296 41.3361 39.9468V29.2008C41.3361 27.3179 39.8188 25.7915 37.9471 25.7915Z" fill="#F6F6F6"/>
<path d="M9.80401 31.3898C7.93236 31.3898 6.41504 29.8634 6.41504 27.9805V17.2346C6.41504 15.3517 7.93236 13.8253 9.80401 13.8253H13.806C15.4853 13.8253 17.0124 14.1851 18.3449 14.8958C19.759 15.6502 20.872 16.7294 21.6546 18.1049C22.411 19.4356 22.7947 20.95 22.7947 22.6076C22.7947 24.2652 22.4132 25.7609 21.66 27.0938C20.8752 28.4813 19.7557 29.5682 18.3308 30.3226C16.9961 31.03 15.4733 31.3898 13.806 31.3898H9.80401Z" fill="#F6F6F6"/>
<path d="M24.4478 13.8406H21.8458C19.9741 13.8406 18.4568 15.367 18.4568 17.2499V27.9958C18.4568 29.8787 19.9741 31.4051 21.8458 31.4051H24.4478C26.3195 31.4051 27.8368 29.8787 27.8368 27.9958V17.2499C27.8368 15.367 26.3195 13.8406 24.4478 13.8406Z" fill="#F6F6F6"/>
<path d="M13.3842 18.9567C12.4603 18.9567 11.5669 18.5762 10.9224 17.8906C10.1637 17.0837 9.84308 15.9542 10.0637 14.8662L12.3354 3.66869C12.6201 2.26147 13.7516 1.18556 15.1635 0.976724L18.1438 0.536082C18.309 0.512027 18.4742 0.5 18.6372 0.5C19.8709 0.5 21.0252 1.179 21.6219 2.29537L26.9988 12.3623C27.5216 13.3409 27.5379 14.5153 27.0412 15.5081C26.5445 16.5009 25.5989 17.1875 24.5054 17.3494L21.7806 17.7517C21.6154 17.7758 21.4501 17.7878 21.2871 17.7878C20.4306 17.7878 19.6133 17.4609 18.9937 16.8879C18.4829 17.7539 17.6025 18.3684 16.571 18.5215L13.8766 18.9195C13.7125 18.9436 13.5473 18.9556 13.3842 18.9556V18.9567Z" fill="#F6F6F6"/>
<path d="M8.22365 19.745C7.52803 19.745 6.84763 19.663 6.20201 19.5023C4.95098 19.1907 3.87059 18.5849 2.99237 17.7014C2.05437 16.76 1.4544 15.5748 1.20985 14.1807C1.08811 13.4896 1.18267 12.7822 1.47288 12.1546C1.01638 11.433 0.715304 10.5921 0.577267 9.64196C0.282715 7.62353 0.860949 5.73085 2.20654 4.31052C3.36844 3.08372 4.9238 2.31943 6.82915 2.03733C7.30956 1.96626 7.78346 1.93017 8.23778 1.93017C9.60076 1.93017 10.8453 2.24726 11.9365 2.8716C13.5962 3.82176 14.6799 5.36674 15.0701 7.33925C15.2016 8.00294 15.1331 8.68413 14.882 9.29972C15.3983 10.0498 15.7396 10.9409 15.8831 11.9272C16.0646 13.1704 15.9081 14.3731 15.419 15.5037C14.9331 16.6266 14.1495 17.5724 13.093 18.3148C12.1213 18.9982 10.9616 19.4421 9.64641 19.6368C9.166 19.7078 8.68776 19.7439 8.22583 19.7439L8.22365 19.745Z" fill="#F6F6F6"/>
<path d="M18.7828 43.356C18.1394 43.356 17.5199 43.1723 16.9873 42.8388C16.4667 43.1668 15.8504 43.356 15.1917 43.356H12.5897C10.718 43.356 9.20068 41.8296 9.20068 39.9468V29.2008C9.20068 27.3179 10.718 25.7915 12.5897 25.7915H15.1917C15.8449 25.7915 16.4547 25.9774 16.9721 26.3C17.5003 25.972 18.1155 25.7915 18.7524 25.7915H21.811C23.1098 25.7915 24.2956 26.5383 24.8608 27.7148C25.426 28.8913 25.2749 30.2898 24.4685 31.3154L21.9881 34.471L24.6239 37.8376C25.4271 38.8632 25.5771 40.2606 25.0108 41.436C24.4445 42.6114 23.2598 43.3571 21.962 43.3571H18.7818L18.7828 43.356Z" fill="#F6F6F6"/>
<path d="M29.5345 31.4204C27.6628 31.4204 26.1455 29.894 26.1455 28.0112V22.7256C24.5401 22.4578 23.3152 21.0538 23.3152 19.3623V17.2652C23.3152 15.3823 24.8325 13.8559 26.7042 13.8559H34.9668C36.8385 13.8559 38.3558 15.3823 38.3558 17.2652V19.3623C38.3558 21.0538 37.1308 22.4578 35.5255 22.7256V28.0112C35.5255 29.894 34.0082 31.4204 32.1365 31.4204H29.5345Z" fill="#F6F6F6"/>
<path d="M40.5863 47.5C40.2569 47.5 39.9222 47.4617 39.5928 47.3874C38.5005 47.1392 37.5614 46.5061 36.9495 45.6051C36.2843 44.6276 36.0615 43.4511 36.3212 42.2943C36.4267 41.8252 36.6049 41.3868 36.8473 40.9921C36.8495 40.9789 36.9125 40.6597 36.9125 40.6597C36.5419 39.9861 36.3952 39.1825 36.5495 38.3701C36.7354 37.3893 37.1571 36.5277 37.8027 35.8071C38.4657 35.068 39.3374 34.5377 40.3243 34.2742C40.7786 34.1528 41.2558 34.0916 41.7427 34.0916C42.2003 34.0916 42.6742 34.1462 43.1514 34.2545C44.948 34.6623 45.9795 35.6453 46.5295 36.3976C47.4142 37.6091 47.7077 39.1333 47.3577 40.6925C47.0153 42.2167 46.1077 43.4369 44.8002 44.129C44.7741 44.1422 44.748 44.1564 44.7219 44.1695C44.7198 44.1804 44.7165 44.1925 44.7143 44.2034C44.4546 45.3602 43.7503 46.3257 42.7307 46.9216C42.0851 47.2999 41.3417 47.5011 40.5863 47.5011V47.5Z" fill="#F6F6F6"/>
<path d="M24.8771 39.3498C24.0402 38.8807 23.3761 38.2247 22.8838 37.3827C22.3914 36.5408 22.1458 35.5939 22.1458 34.5432C22.1458 33.4924 22.3914 32.5477 22.8838 31.7112C23.3761 30.8748 24.0402 30.2209 24.8771 29.7519C25.7141 29.2828 26.6347 29.0477 27.639 29.0477C28.6433 29.0477 29.5639 29.2828 30.4008 29.7519C31.2377 30.2209 31.8975 30.8748 32.379 31.7112C32.8605 32.5477 33.1018 33.4924 33.1018 34.5432C33.1018 35.5939 32.8583 36.5408 32.3714 37.3827C31.8844 38.2247 31.2247 38.8807 30.3932 39.3498C29.5617 39.8188 28.6433 40.0539 27.639 40.0539C26.6347 40.0539 25.7141 39.8188 24.8771 39.3498ZM29.6856 36.8087C30.1976 36.2368 30.4541 35.4824 30.4541 34.5432C30.4541 33.6039 30.1976 32.8364 29.6856 32.27C29.1737 31.7036 28.4911 31.4204 27.639 31.4204C26.7868 31.4204 26.089 31.7014 25.5771 32.2623C25.0652 32.8232 24.8087 33.5842 24.8087 34.5432C24.8087 35.5021 25.0652 36.25 25.5771 36.8163C26.089 37.3827 26.7771 37.6659 27.639 37.6659C28.5009 37.6659 29.1737 37.3805 29.6856 36.8087Z" fill="#34344A"/>
<path d="M37.9473 29.2008V39.9468H35.3452V29.2008H37.9473Z" fill="#34344A"/>
<path d="M16.758 17.9081C17.6003 18.3575 18.2514 18.9873 18.7133 19.7986C19.1753 20.6099 19.4057 21.5459 19.4057 22.6075C19.4057 23.6692 19.1753 24.5921 18.7133 25.4089C18.2514 26.2256 17.5971 26.8576 16.7504 27.307C15.9037 27.7564 14.9222 27.9805 13.8059 27.9805H9.80396V17.2346H13.8059C14.932 17.2346 15.9156 17.4587 16.758 17.9081ZM15.9363 24.9037C16.4841 24.3625 16.758 23.5971 16.758 22.6075C16.758 21.618 16.4841 20.8472 15.9363 20.2961C15.3885 19.745 14.6222 19.4695 13.6386 19.4695H12.406V25.715H13.6386C14.6222 25.715 15.3885 25.4449 15.9363 24.9037Z" fill="#34344A"/>
<path d="M24.4478 17.2499V27.9958H21.8457V17.2499H24.4478Z" fill="#34344A"/>
<path d="M20.3818 12.5941L16.4374 13.1769L16.0787 15.1483L13.3843 15.5463L15.6559 4.34878L18.6373 3.90814L24.0142 13.9751L21.2893 14.3775L20.3829 12.5931L20.3818 12.5941ZM19.4275 10.6927L17.5493 6.99373L16.8232 11.0776L19.4275 10.6927Z" fill="#34344A"/>
<path d="M7.01806 16.1936C6.36917 16.0318 5.82463 15.73 5.38661 15.2894C4.9475 14.8487 4.66817 14.2813 4.54643 13.5881L7.28652 13.1835C7.38434 13.5717 7.56368 13.8516 7.82454 14.0243C8.0854 14.1971 8.40169 14.2561 8.77341 14.2015C9.15491 14.1446 9.44295 14.0123 9.63859 13.8035C9.83314 13.5946 9.90814 13.3333 9.86249 13.0195C9.82445 12.7571 9.70489 12.5526 9.50381 12.4072C9.30273 12.2618 9.06687 12.1524 8.79406 12.0792C8.52234 12.0059 8.13974 11.9337 7.64738 11.8616C6.93328 11.75 6.34526 11.621 5.88333 11.4723C5.42031 11.3236 5.00402 11.0656 4.6323 10.6982C4.26058 10.3308 4.0258 9.81253 3.92907 9.14664C3.78451 8.15711 4.02798 7.32941 4.65838 6.66352C5.28879 5.99764 6.17679 5.57996 7.3213 5.41157C8.48538 5.23991 9.46468 5.38096 10.2592 5.83581C11.0537 6.29067 11.5494 7.01451 11.745 8.00622L8.95927 8.41734C8.88862 8.07729 8.7245 7.82581 8.46473 7.66289C8.20496 7.49998 7.89519 7.44531 7.53325 7.49888C7.2224 7.54481 6.98328 7.66508 6.81698 7.85971C6.65068 8.05433 6.58982 8.308 6.63547 8.62181C6.68546 8.96514 6.88545 9.20897 7.23435 9.3533C7.58325 9.49763 8.11583 9.63102 8.83102 9.7513C9.54729 9.8825 10.1342 10.0225 10.5918 10.1723C11.0494 10.321 11.4635 10.5746 11.8331 10.9322C12.2026 11.2897 12.4352 11.7872 12.5276 12.4236C12.6156 13.0293 12.5428 13.6023 12.3091 14.1424C12.0754 14.6826 11.6885 15.1418 11.1494 15.5201C10.6103 15.8995 9.94401 16.1466 9.15057 16.2636C8.37778 16.3773 7.66694 16.3544 7.01806 16.1925V16.1936Z" fill="#34344A"/>
<path d="M18.7828 39.9468L15.1917 35.2014V39.9468H12.5896V29.2008H15.1917V33.9155L18.7524 29.2008H21.8109L17.672 34.4666L21.9631 39.9468H18.7828Z" fill="#34344A"/>
<path d="M34.9668 17.2652V19.3623H32.1365V28.0112H29.5344V19.3623H26.7041V17.2652H34.9668Z" fill="#34344A"/>
<path d="M39.7471 43.6818C39.6155 43.4883 39.5753 43.2762 39.6264 43.0466C39.6797 42.8115 39.8068 42.6333 40.009 42.5119C40.2112 42.3905 40.4449 42.3599 40.7079 42.42C40.9655 42.4791 41.16 42.6059 41.2905 42.8027C41.422 42.9995 41.4611 43.216 41.4079 43.4511C41.3568 43.6807 41.2296 43.8546 41.0274 43.9727C40.8253 44.0908 40.5959 44.1203 40.3383 44.0623C40.0753 44.0022 39.8775 43.8754 39.746 43.6818H39.7471ZM43.798 38.416C44.1012 38.8315 44.186 39.3399 44.0512 39.9402C43.9273 40.4935 43.6501 40.8838 43.2208 41.1112C42.7915 41.3387 42.2806 41.3879 41.6883 41.2599L41.4959 41.9127L40.1797 41.6131L40.5046 39.961L41.0318 40.0802C41.4829 40.1829 41.8394 40.2048 42.1013 40.1469C42.3632 40.0889 42.5274 39.9129 42.5937 39.6187C42.6404 39.4132 42.6208 39.2382 42.5361 39.095C42.4513 38.9518 42.3089 38.8577 42.11 38.8129C41.8991 38.7648 41.722 38.7878 41.5774 38.8818C41.4329 38.9758 41.3383 39.1256 41.2916 39.3323L39.8786 39.0108C39.9471 38.6489 40.0949 38.3416 40.3209 38.0902C40.547 37.8387 40.8372 37.6648 41.1948 37.5697C41.5513 37.4746 41.9546 37.4779 42.4056 37.5806C43.0317 37.7228 43.4969 38.0016 43.8001 38.4171L43.798 38.416Z" fill="#34344A"/>
</g>
<defs>
<clipPath id="clip0_377_368">
<rect width="47" height="47" fill="white" transform="translate(0.5 0.5)"/>
</clipPath>
</defs>
</svg>